<svg xmlns="http://www.w3.org/2000/svg" viewBox="0 0 46.673 9.604" height="36.3" width="176.4"><path d="M12.912 9.604c-.715 0-1.27-.555-1.27-1.243V.026h.026c.688 0 1.297.556 1.297 1.244v8.334zM24.897 9.604a1.242 1.242 0 01-1.243-1.243V4.84a3.534 3.534 0 00-3.52-3.518 3.517 3.517 0 00-3.518 3.519V8.36c0 .688-.556 1.243-1.244 1.243h-.026V4.815c0-2.645 2.17-4.789 4.789-4.789 2.646 0 4.789 2.17 4.789 4.79v4.788zM31.618 1.296c-1.8 0-3.281 1.244-3.599 2.858h6.932c.133 0 .239-.106.212-.212-.397-1.508-1.825-2.646-3.545-2.646m3.651 4.154h-7.276c.317 1.614 1.826 2.831 3.598 2.831a3.92 3.92 0 002.487-.9c.477-.475 1.244-.502 1.773-.105-.873 1.402-2.487 2.302-4.26 2.302-2.751 0-4.974-2.143-4.974-4.789C26.617 2.117 28.84 0 31.591 0c2.54 0 4.683 1.826 4.922 4.207.105.714-.556 1.217-1.244 1.243M42.254 9.604c-2.17 0-3.969-.979-4.313-2.354.424-.37 1.059-.344 1.482.053.45.555 1.482 1.005 2.857 1.005 1.826 0 3.096-.847 3.096-1.614 0-1.138-1.429-1.376-3.598-1.614-1.826-.212-3.916-.423-3.916-2.17 0-1.64 1.931-2.91 4.392-2.91 2.117 0 3.863.953 4.286 2.249a1.024 1.024 0 01-1.481-.053c-.503-.503-1.482-.926-2.779-.926-1.825 0-3.122.847-3.122 1.614 0 .556 1.482.714 2.778.873 1.032.132 2.117.238 2.99.582 1.455.556 1.747 1.588 1.747 2.329-.027 1.666-1.958 2.936-4.419 2.936" stroke-width=".265"/><path class="st0" fill="#f49e00" stroke-width=".265" d="M0 0h3.81v9.578H0z"/></svg>